@startuml

skinparam backgroundColor #c0c0c0

class thing {
        string desc
        string short_desc
        attrib[] attribs
}

class container {
        map<string, thing> contents
}

class room {
        bool visited
        exit[] exits
}

thing <|-- container
container <|-- room


@enduml
